<svg width="42" height="42" viewBox="0 0 42 42" fill="none" xmlns="http://www.w3.org/2000/svg">
<path d="M34.3822 27.188H7.61775M34.3822 27.188V14C34.3822 10.6995 34.3823 9.051 33.3568 8.0255C32.333 7 30.6828 7 27.3823 7H14.6177C11.3172 7 9.66875 7 8.64325 8.0255C7.61775 9.051 7.61775 10.6995 7.61775 14V27.188M34.3822 27.188L37.4343 30.338L37.5883 30.499C38.1496 31.1157 38.4723 31.9125 38.4983 32.746L38.5 32.9683C38.5 33.2308 38.5 33.3602 38.493 33.4705C38.4393 34.3208 38.0773 35.1224 37.4748 35.7248C36.8724 36.3273 36.0708 36.6893 35.2205 36.743C35.0532 36.7501 34.8857 36.7525 34.7183 36.75H7.28175C7.01925 36.75 6.88975 36.75 6.7795 36.743C5.92918 36.6893 5.12764 36.3273 4.52517 35.7248C3.9227 35.1224 3.56069 34.3208 3.507 33.4705C3.5 33.3602 3.5 33.229 3.5 32.97L3.50175 32.7477C3.52772 31.9143 3.85042 31.1174 4.41175 30.5008L4.56575 30.3397L7.61775 27.188M16.625 32.375H25.375" stroke="black" stroke-width="2.5" stroke-linecap="round"/>
<path d="M22.3125 11.8125C22.3125 12.1606 22.1742 12.4944 21.9281 12.7406C21.6819 12.9867 21.3481 13.125 21 13.125C20.6519 13.125 20.3181 12.9867 20.0719 12.7406C19.8258 12.4944 19.6875 12.1606 19.6875 11.8125C19.6875 11.4644 19.8258 11.1306 20.0719 10.8844C20.3181 10.6383 20.6519 10.5 21 10.5C21.3481 10.5 21.6819 10.6383 21.9281 10.8844C22.1742 11.1306 22.3125 11.4644 22.3125 11.8125Z" fill="black"/>
</svg>
