<svg width="42" height="42" viewBox="0 0 42 42" fill="none" xmlns="http://www.w3.org/2000/svg">
<path d="M21 22.3125C21 22.6606 20.8617 22.9944 20.6156 23.2406C20.3694 23.4867 20.0356 23.625 19.6875 23.625H11.8125C11.4644 23.625 11.1306 23.4867 10.8844 23.2406C10.6383 22.9944 10.5 22.6606 10.5 22.3125C10.5 21.9644 10.6383 21.6306 10.8844 21.3844C11.1306 21.1383 11.4644 21 11.8125 21H19.6875C20.0356 21 20.3694 21.1383 20.6156 21.3844C20.8617 21.6306 21 21.9644 21 22.3125ZM19.6875 15.75H11.8125C11.4644 15.75 11.1306 15.8883 10.8844 16.1344C10.6383 16.3806 10.5 16.7144 10.5 17.0625C10.5 17.4106 10.6383 17.7444 10.8844 17.9906C11.1306 18.2367 11.4644 18.375 11.8125 18.375H19.6875C20.0356 18.375 20.3694 18.2367 20.6156 17.9906C20.8617 17.7444 21 17.4106 21 17.0625C21 16.7144 20.8617 16.3806 20.6156 16.1344C20.3694 15.8883 20.0356 15.75 19.6875 15.75ZM38.0625 26.4912V36.75C38.0646 36.9814 38.0055 37.2092 37.8911 37.4104C37.7768 37.6116 37.6113 37.7789 37.4114 37.8955C37.2115 38.0121 36.9844 38.0738 36.753 38.0743C36.5216 38.0748 36.2941 38.0141 36.0938 37.8984L32.1562 35.6442L28.2188 37.8984C28.0184 38.0141 27.7909 38.0748 27.5595 38.0743C27.3281 38.0738 27.101 38.0121 26.9011 37.8955C26.7012 37.7789 26.5357 37.6116 26.4214 37.4104C26.307 37.2092 26.2479 36.9814 26.25 36.75V32.8125H6.5625C5.86631 32.8125 5.19863 32.5359 4.70634 32.0437C4.21406 31.5514 3.9375 30.8837 3.9375 30.1875V9.1875C3.9375 8.49131 4.21406 7.82363 4.70634 7.33134C5.19863 6.83906 5.86631 6.5625 6.5625 6.5625H35.4375C36.1337 6.5625 36.8014 6.83906 37.2937 7.33134C37.7859 7.82363 38.0625 8.49131 38.0625 9.1875V14.1963C38.8922 14.9909 39.5525 15.9451 40.0035 17.0016C40.4546 18.0581 40.6871 19.195 40.6871 20.3438C40.6871 21.4925 40.4546 22.6294 40.0035 23.6859C39.5525 24.7424 38.8922 25.6966 38.0625 26.4912ZM26.25 30.1875V26.4912C24.8197 25.1118 23.9158 23.2764 23.6942 21.3017C23.4726 19.3271 23.9473 17.337 25.0363 15.6749C26.1253 14.0128 27.7603 12.783 29.6592 12.1977C31.5581 11.6124 33.6017 11.7082 35.4375 12.4688V9.1875H6.5625V30.1875H26.25ZM35.4375 28.2188C34.3981 28.653 33.2828 28.8766 32.1562 28.8766C31.0297 28.8766 29.9144 28.653 28.875 28.2188V34.4892L31.5 32.9864C31.6984 32.873 31.9229 32.8134 32.1513 32.8134C32.3798 32.8134 32.6043 32.873 32.8027 32.9864L35.4277 34.4892L35.4375 28.2188ZM38.0625 20.3438C38.0625 19.1756 37.7161 18.0337 37.0671 17.0624C36.4181 16.0911 35.4957 15.3341 34.4165 14.8871C33.3372 14.4401 32.1497 14.3231 31.004 14.551C29.8583 14.7789 28.8059 15.3414 27.9799 16.1674C27.1539 16.9934 26.5914 18.0458 26.3635 19.1915C26.1356 20.3372 26.2526 21.5247 26.6996 22.604C27.1466 23.6832 27.9036 24.6056 28.8749 25.2546C29.8462 25.9036 30.9881 26.25 32.1562 26.25C32.9319 26.25 33.6999 26.0972 34.4165 25.8004C35.1331 25.5036 35.7842 25.0685 36.3326 24.5201C36.881 23.9717 37.3161 23.3206 37.6129 22.604C37.9097 21.8874 38.0625 21.1194 38.0625 20.3438Z" fill="black"/>
</svg>
