<svg width="47" height="47" viewBox="0 0 47 47" fill="none" xmlns="http://www.w3.org/2000/svg">
<path d="M5.87499 9.59586V9.69377L5.9729 9.67419L8.04874 11.75H5.87499V35.25H31.5487L40.8117 44.5129L43.2987 42.0259L8.94957 7.65711L4.6804 3.38794L2.17374 5.87502L5.87499 9.59586ZM12.5529 18.4279C12.9446 18.0559 13.2383 17.625 13.4342 17.1354L17.9383 21.6396C17.7229 22.2271 17.625 22.8538 17.625 23.5C17.625 25.0667 18.2517 26.555 19.3483 27.6517C20.445 28.7484 21.9333 29.375 23.5 29.375C24.1462 29.375 24.7729 29.2771 25.3604 29.0617L27.6321 31.3334H13.7083C13.7083 30.2954 13.2971 29.2967 12.5529 28.5721C11.8283 27.8279 10.8296 27.4167 9.79165 27.4167V19.5834C10.8296 19.5834 11.8283 19.1721 12.5529 18.4279ZM34.6429 28.3959L41.125 34.8584V11.75H18.0167L21.9333 15.6667H33.2917C33.2917 16.7046 33.7029 17.7034 34.4471 18.4279C35.1717 19.1721 36.1704 19.5834 37.2083 19.5834V27.4167C36.2292 27.4167 35.3479 27.7692 34.6429 28.3959Z" fill="black"/>
</svg>
